<?xml version="1.0" standalone="no"?>
<?xml-stylesheet type="text/css" href="../css/style.css"?>

<svg xmlns="http://www.w3.org/2000/svg" viewBox="2943 -5933 496 554">
  <g id="Group" fill="none" fill-rule="evenodd">
    
    <path id="pat-letter-p" fill="#FFF" d="M2944-5750.45v-179.94c17.06-1.7 41.26-2.6 72.6-2.6 27.16 0 45.75 4.2 55.76 12.6 10 8.4 15.02 24.3 15.02 47.7 0 23.1-4.66 38.9-13.98 47.4-9.3 8.5-25.98 12.7-50 12.7-8.9 0-19-.6-30.3-1.8v64.18H2944zm49.1-98.06h22.46c8.88 0 14.88-1.7 18.02-5 3.13-3.3 4.7-9.8 4.7-19.3 0-9.8-1.57-16.3-4.7-19.6-3.14-3.3-9.14-5-18.02-5h-22.46v48.7z"/>

    <path id="pat-letter-a" fill="#FFF" d="M3217.35-5793.27H3162l-10.72 42.77h-50.14l49.36-167.16c.87-3.83 2.82-6.9 5.87-9.26 3.05-2.35 6.57-3.52 10.58-3.52h45.44c4 0 7.5 1.17 10.5 3.52s5.1 5.43 6.1 9.26l49.1 167.16H3228l-10.7-42.77zm-9.14-35.47l-11.4-46.16c-1.9-9.04-3-15.3-3.4-18.77h-7c-1.2 6.6-2.4 12.86-3.6 18.77l-11.5 46.16h37.1z"/>

    <path id="pat-letter-t" fill="#FFF" d="M3438.38-5892.32h-51.97v142.13h-49.1v-142.1h-51.7v-37.8s66.5-2 109.7-2c18.3 0 25.1 4.3 30.1 9 17 15.6 13.1 30.9 13.1 30.9z"/>
    
    <path id="hadley-letter-h" fill="#000" d="M3095.73-5745.4v179.95h-49.1v-77.7h-53.8v77.7H2944v-179.94h48.84v66.5h53.8v-66.5z"/>
    
    <path id="hadley-letter-a" fill="#000" d="M3215.64-5608.22h-55.36l-10.7 42.77h-50.15l49.36-167.16c.8-3.9 2.8-7 5.8-9.3 3-2.4 6.6-3.5 10.6-3.5h45.4c4 0 7.5 1.1 10.6 3.5s5.1 5.4 6.1 9.2l49.1 167.1h-50.2l-10.7-42.8zm-9.14-35.46l-11.5-46.16c-1.9-9.04-3.03-15.3-3.38-18.78h-7.05c-1.22 6.6-2.44 12.87-3.66 18.78l-11.4 46.16h37.1z"/>
    
    <path id="hadley-letter-d" fill="#000" d="M3280.48-5565.4v-179.94c29.25-1.74 53.88-2.6 73.9-2.6 30.3 0 51.32 6.5 63.07 19.55 11.76 13.1 17.63 37.4 17.63 73.1 0 35.7-5.87 60-17.63 73-11.75 13.1-32.77 19.6-63.06 19.6-25.3 0-49.9-.8-74-2.6zm49.1-145.78v111.36c5.04.17 13.3.26 24.8.26 11.32 0 18.98-3.78 23-11.35 4-7.6 6-22.4 6-44.5s-2-37-6-44.6c-4.02-7.7-11.68-11.5-23-11.5l-24.8.2z"/>
    
    <path id="hadley-letter-l" fill="#000" d="M2993.1-5561.2v129.62c0 7.47 4.1 11.2 12.27 11.2l65.85.27 2.86 36.7c-17.07 2.1-49.9 2.9-88.03 2.9-13.4 0-23.77-3.6-31.08-10.8-7.3-7.2-10.97-16.8-10.97-28.8v-141.1h49.1z"/>
    
    <path id="hadley-letter-e" fill="#000" d="M3241.06-5417.76l2.35 35.2c-17 1.92-46.8 2.87-89.3 2.87-12.3 0-22.3-3.5-29.7-10.5-7.5-7-11.2-16.4-11.2-28v-104.3c0-11.6 3.8-21 11.4-28 7.6-7 17.5-10.5 29.7-10.5 42.48 0 72.25 1 89.3 2.9l-2.34 35.2h-67.64c-7.5 0-11.2 3.78-11.2 11.26v21.9h69.2v33.65h-69.2v27.4c0 7.45 3.7 11.2 11.2 11.2h67.65z"/>
    
    <path id="hadley-letter-y" fill="#000" d="M3371.2-5438.88v57.63h-49.1v-57.37l-59.56-122.57h50.67l25.9 60.8c2.3 5.2 4.3 13.3 6 24.3h3.2c2.5-12.1 4.5-20.2 6-24.2l25.9-60.7h50.4l-59.2 122.3z"/>
  </g>
</svg>
